<svg xmlns="http://www.w3.org/2000/svg" viewBox="0 0 146.76 149.4"><defs><style>.cls-1,.cls-3{fill:#300505;}.cls-1,.cls-2{fill-rule:evenodd;}.cls-2{fill:#d2ab67;}</style></defs><g id="Layer_2" data-name="Layer 2"><g id="Layer_1-2" data-name="Layer 1"><path class="cls-1" d="M21.07,45.34l1.34-.94,51-35.69,51,35.69,1.34.94H114.24c-1.55,0-3.15,1.87-3.15,3.42V63.51h0V73.8c0,.67,0,1.34,0,2v.52c0,.48,0,1,0,1.43a37.73,37.73,0,0,1-37,37.72H72.67a37.73,37.73,0,0,1-37-37.72c0-.48,0-1,0-1.43V75.8c0-.67,0-1.33,0-2V63.51h0V48.76c0-1.55-1.6-3.42-3.15-3.42H21.07ZM28,75.14c0,.3,0,.6,0,.89,0,.57,0,1.15,0,1.72a45.2,45.2,0,0,0,3.06,16.42c-5.51-1.77-10.84-4-13.11-7A7.39,7.39,0,0,1,16.5,82.9C16.15,76.3,22.59,74.87,28,75.14ZM63.49,39.58h8.93v8.93H63.49Zm0,20.41V51.06h8.93V60ZM75,60V51.06h8.93V60Zm0-20.41h8.93v8.93H75ZM44,88.45C71.16,76.51,72.68,103.87,89.67,106,73.5,113.29,52.32,110.52,44,88.45ZM118.73,76c0-.74,0-1.48,0-2.24V54.47A1.72,1.72,0,0,1,120.33,53h13.41l.27,0h0l.26,0h0l.26,0h0l.26,0h0c2.87-.4,5.17-1.85,5.26-4h0c.07-1.62-1.13-3.62-4.3-5.85L75.08.56,74.86.42l0,0h0A2.89,2.89,0,0,0,73.43,0h-.11a3,3,0,0,0-1.39.39h0l0,0a1.64,1.64,0,0,0-.22.14L11,43c-3.18,2.23-4.37,4.23-4.3,5.85h0c.08,2.14,2.38,3.59,5.26,4h0l.26,0h0l.26,0h0l.27,0h0L13,53H26.43A1.72,1.72,0,0,1,28,54.47v13.3c-10-.31-19.45,4.3-18.86,15.52.68,13,15.05,16.68,26.69,19.94a45.31,45.31,0,0,0,36.7,19.89h1.68a45.37,45.37,0,0,0,44.55-45.37Q118.76,76.9,118.73,76Z"/><path class="cls-2" d="M73,89c10.29,12.4,20.13,21.8,29.72,1C91.14,83.44,81.3,83.36,73,89"/><path class="cls-3" d="M146.76,149.13h-2.58a8.17,8.17,0,0,1-3.36-.68,7.1,7.1,0,0,1-2.52-1.83,8.49,8.49,0,0,1-1.56-2.7,8.79,8.79,0,0,1-.57-3.09,7.49,7.49,0,0,1,.57-2.83,7.65,7.65,0,0,1,4.15-4.24,8,8,0,0,1,3.25-.66h2.62v4.28H145a4.65,4.65,0,0,0-2,.4,2.56,2.56,0,0,0-1.28,1.43h5.09v3.84h-5.09a2.48,2.48,0,0,0,1,1.24,3.45,3.45,0,0,0,2.07.59h2Zm-12.29,0h-2.58a8.15,8.15,0,0,1-3.35-.68,7,7,0,0,1-2.52-1.83,8.49,8.49,0,0,1-1.56-2.7,8.79,8.79,0,0,1-.57-3.09,7.9,7.9,0,0,1,2.17-5.32,7.66,7.66,0,0,1,2.55-1.75,8,8,0,0,1,3.24-.66h2.62v4.28H132.7a4.73,4.73,0,0,0-2,.4,2.6,2.6,0,0,0-1.28,1.43h5.09v3.84h-5.09a2.59,2.59,0,0,0,1,1.24,3.46,3.46,0,0,0,2.08.59h2Zm-21.32,0V138.82a7.12,7.12,0,0,1,.65-3.29,4.15,4.15,0,0,1,1.93-1.84,5.55,5.55,0,0,1,1.36-.44,8.08,8.08,0,0,1,1.63-.15h3.8v4.46h-2.58a2.4,2.4,0,0,0-1.15.21,1.2,1.2,0,0,0-.53.64l-.08.48,0,.64h4.37v4.11h-4.41l0,5.49Zm-11,0V138.82a7,7,0,0,1,.66-3.29,4.08,4.08,0,0,1,1.92-1.84,5.7,5.7,0,0,1,1.36-.44,8.15,8.15,0,0,1,1.63-.15h3.8v4.46H109a2.42,2.42,0,0,0-1.15.21,1.19,1.19,0,0,0-.52.64l-.08.48,0,.64h4.36v4.11h-4.41l.05,5.49Zm-13.36-7.92a3.73,3.73,0,0,0,.1.91,3.06,3.06,0,0,0,.32.77A2.91,2.91,0,0,0,90.39,144l.35.16.38.13a3,3,0,0,0,.77.1h.32a2.53,2.53,0,0,0,.45-.09,2.44,2.44,0,0,0,.44-.13l.34-.16a3,3,0,0,0,1.25-1.13,3.27,3.27,0,0,0,.45-1.72,3.34,3.34,0,0,0-.44-1.73,2.71,2.71,0,0,0-1.18-1.07,4.78,4.78,0,0,0-.75-.27,2.38,2.38,0,0,0-.37-.06,2.76,2.76,0,0,0-.44,0,3.35,3.35,0,0,0-1.53.37,2.91,2.91,0,0,0-1.17,1.12,3,3,0,0,0-.34.8A4.08,4.08,0,0,0,88.81,141.21Zm-5.1-.2a7.83,7.83,0,0,1,.54-2.78,8.89,8.89,0,0,1,1.63-2.67,8.51,8.51,0,0,1,2.63-2,7.6,7.6,0,0,1,3.4-.74,8.43,8.43,0,0,1,3.32.64,9.18,9.18,0,0,1,1.42.77,7.8,7.8,0,0,1,1.25,1.06,8.75,8.75,0,0,1,1.71,2.7,8.42,8.42,0,0,1,.63,3.21,7.78,7.78,0,0,1-.67,3.25,7.94,7.94,0,0,1-1.89,2.6,9.5,9.5,0,0,1-2.66,1.7l-.73.26-.75.22a6.58,6.58,0,0,1-1.48.16,8.15,8.15,0,0,1-5.83-2.34,8,8,0,0,1-1.86-2.69,7.9,7.9,0,0,1-.49-1.61A8.25,8.25,0,0,1,83.71,141Zm-1.62,8.12h-2.4A8,8,0,0,1,75.38,148a7.21,7.21,0,0,1-2.72-2.93,9.32,9.32,0,0,1-.69-1.89,8.38,8.38,0,0,1-.24-2,9.07,9.07,0,0,1,.23-2,8.82,8.82,0,0,1,.72-2,7.21,7.21,0,0,1,2.72-3,7.29,7.29,0,0,1,2-.86,9.29,9.29,0,0,1,2.38-.29h2.31v4.6H80.48a3.84,3.84,0,0,0-1.94.47,3.31,3.31,0,0,0-1.25,1.27,4.19,4.19,0,0,0-.34.81,3.51,3.51,0,0,0-.12.88,3.26,3.26,0,0,0,.46,1.67,3.21,3.21,0,0,0,1.28,1.25,3.93,3.93,0,0,0,.92.35,4.74,4.74,0,0,0,1.14.13l1.46.05Zm-19,0H60.56a8.12,8.12,0,0,1-3.35-.68,7,7,0,0,1-2.52-1.83,8.52,8.52,0,0,1-1.57-2.7,8.78,8.78,0,0,1-.56-3.09,7.47,7.47,0,0,1,.56-2.83,7.6,7.6,0,0,1,1.6-2.49,7.87,7.87,0,0,1,2.55-1.75,8,8,0,0,1,3.25-.66h2.62v4.28H61.36a4.71,4.71,0,0,0-2,.4,2.56,2.56,0,0,0-1.28,1.43h5.09v3.84H58.05a2.48,2.48,0,0,0,1,1.24,3.45,3.45,0,0,0,2.07.59h2Zm-30.5,0,1-12.37a4.75,4.75,0,0,1,0-.69,3.78,3.78,0,0,1,.12-.64,4.29,4.29,0,0,1,.35-1,2.37,2.37,0,0,1,1.08-1.2,3.31,3.31,0,0,1,.78-.28l.49-.08.55,0a3.86,3.86,0,0,1,2.35.56,3,3,0,0,1,1,1.67l1.39,5.4,1.2-4.92a5,5,0,0,1,.59-1.51,2.2,2.2,0,0,1,.79-.79,2.45,2.45,0,0,1,.81-.3l.77-.08.64,0a3.28,3.28,0,0,1,2.38.86,3.37,3.37,0,0,1,.89,2.54L51,149.13H46.12l-.56-9.56-2,8.25a1.5,1.5,0,0,1-.65,1,1.92,1.92,0,0,1-1.13.36,1.85,1.85,0,0,1-1-.3,1.49,1.49,0,0,1-.61-.88L38,139.57l-.55,9.56Zm-13.09-7.92a3.73,3.73,0,0,0,.1.91,2.76,2.76,0,0,0,.33.77A2.89,2.89,0,0,0,21.13,144l.35.16.38.13a3,3,0,0,0,.77.1H23a2.45,2.45,0,0,0,.44-.09,2.23,2.23,0,0,0,.44-.13,2.82,2.82,0,0,0,.34-.16,3,3,0,0,0,1.25-1.13,3.57,3.57,0,0,0,0-3.45,2.65,2.65,0,0,0-1.18-1.07,4.66,4.66,0,0,0-.74-.27,2.5,2.5,0,0,0-.38-.06,2.76,2.76,0,0,0-.44,0,3.31,3.31,0,0,0-1.52.37A2.94,2.94,0,0,0,20,139.45a3.32,3.32,0,0,0-.34.8A4.08,4.08,0,0,0,19.55,141.21Zm-5.1-.2a7.83,7.83,0,0,1,.54-2.78,8.72,8.72,0,0,1,1.64-2.67,8.47,8.47,0,0,1,2.62-2,7.65,7.65,0,0,1,3.41-.74,8.42,8.42,0,0,1,3.31.64,9.78,9.78,0,0,1,1.43.77,8.19,8.19,0,0,1,1.24,1.06,8.56,8.56,0,0,1,1.71,2.7,8.43,8.43,0,0,1,.64,3.21,7.79,7.79,0,0,1-.68,3.25,7.94,7.94,0,0,1-1.89,2.6,9.36,9.36,0,0,1-2.66,1.7L25,149l-.74.22a6.73,6.73,0,0,1-1.49.16,8.25,8.25,0,0,1-3.15-.59,8.41,8.41,0,0,1-4.54-4.44,7.9,7.9,0,0,1-.49-1.61A8.25,8.25,0,0,1,14.45,141ZM0,149.13v-16H5v5.58H7.36V133.1h5.06v16H7.36v-6.29H5v6.29Z"/></g></g></svg>