<svg xmlns="http://www.w3.org/2000/svg" viewBox="0 0 146.76 16.58"><defs><style>.cls-1{fill:#fff;}</style></defs><g id="Layer_2" data-name="Layer 2"><g id="Layer_1-2" data-name="Layer 1"><path class="cls-1" d="M146.76,16.3h-2.58a8.16,8.16,0,0,1-3.36-.67,7.12,7.12,0,0,1-2.52-1.84,8.44,8.44,0,0,1-1.56-2.69,8.89,8.89,0,0,1-.57-3.1,7.4,7.4,0,0,1,.57-2.82,7.74,7.74,0,0,1,1.6-2.5A7.81,7.81,0,0,1,140.89.93a8.21,8.21,0,0,1,3.25-.66h2.62V4.55H145a4.65,4.65,0,0,0-2,.4,2.56,2.56,0,0,0-1.28,1.43h5.09v3.84h-5.09a2.48,2.48,0,0,0,1,1.24,3.38,3.38,0,0,0,2.07.59h2Zm-12.28,0h-2.59a8.15,8.15,0,0,1-3.35-.67A7,7,0,0,1,126,13.79a8.44,8.44,0,0,1-1.56-2.69,8.89,8.89,0,0,1-.57-3.1,7.4,7.4,0,0,1,.57-2.82,7.58,7.58,0,0,1,1.6-2.5A7.81,7.81,0,0,1,128.61.93a8.19,8.19,0,0,1,3.24-.66h2.63V4.55H132.7a4.73,4.73,0,0,0-2,.4,2.6,2.6,0,0,0-1.28,1.43h5.1v3.84h-5.1a2.59,2.59,0,0,0,1,1.24,3.39,3.39,0,0,0,2.08.59h2Zm-21.33,0V6a7.15,7.15,0,0,1,.65-3.29A4.13,4.13,0,0,1,115.73.87a5.18,5.18,0,0,1,1.36-.45,8.08,8.08,0,0,1,1.63-.15h3.8V4.73h-2.58a2.4,2.4,0,0,0-1.15.21,1.19,1.19,0,0,0-.53.65l-.08.48,0,.63h4.37v4.12h-4.41l0,5.48Zm-11,0V6a7,7,0,0,1,.66-3.29A4.06,4.06,0,0,1,104.75.87a5.3,5.3,0,0,1,1.36-.45,8.15,8.15,0,0,1,1.63-.15h3.8V4.73H109a2.42,2.42,0,0,0-1.15.21,1.17,1.17,0,0,0-.52.65l-.08.48,0,.63h4.36v4.12h-4.41l.05,5.48ZM88.81,8.39a3.59,3.59,0,0,0,.1.9,2.86,2.86,0,0,0,1.48,1.85l.35.15.38.14a3.44,3.44,0,0,0,.77.09h.32a1.78,1.78,0,0,0,.45-.08,2.49,2.49,0,0,0,.44-.14l.34-.16A2.91,2.91,0,0,0,94.69,10a3.23,3.23,0,0,0,.45-1.71,3.29,3.29,0,0,0-.44-1.73A2.65,2.65,0,0,0,93.52,5.5a3.36,3.36,0,0,0-.75-.27l-.37-.07a2.89,2.89,0,0,0-.44,0,3.35,3.35,0,0,0-1.53.36,3,3,0,0,0-1.17,1.12,3.17,3.17,0,0,0-.34.81A4,4,0,0,0,88.81,8.39Zm-5.1-.21a7.87,7.87,0,0,1,.54-2.78,8.72,8.72,0,0,1,1.63-2.66,8.36,8.36,0,0,1,2.63-2A7.61,7.61,0,0,1,91.91,0a8.44,8.44,0,0,1,3.32.65,7.75,7.75,0,0,1,1.42.77A7.32,7.32,0,0,1,97.9,2.48a8.52,8.52,0,0,1,1.71,2.7,8.37,8.37,0,0,1,.63,3.2,7.75,7.75,0,0,1-.67,3.25,7.94,7.94,0,0,1-1.89,2.6A9.28,9.28,0,0,1,95,15.93l-.73.27-.75.21a6.58,6.58,0,0,1-1.48.17A8.34,8.34,0,0,1,88.9,16a8.54,8.54,0,0,1-2.67-1.74,8,8,0,0,1-1.86-2.7,7.81,7.81,0,0,1-.49-1.6A8.41,8.41,0,0,1,83.71,8.18ZM82.09,16.3h-2.4a8,8,0,0,1-4.31-1.12,7.24,7.24,0,0,1-2.72-2.94A9.32,9.32,0,0,1,72,10.35a8.24,8.24,0,0,1-.24-2,9.09,9.09,0,0,1,.23-2,8.93,8.93,0,0,1,.72-1.94,7.15,7.15,0,0,1,2.72-3,7.31,7.31,0,0,1,2-.87A9.29,9.29,0,0,1,79.78.27h2.31v4.6H80.48a3.75,3.75,0,0,0-1.94.48,3.29,3.29,0,0,0-1.25,1.26,4.56,4.56,0,0,0-.34.82,3.49,3.49,0,0,0-.12.87A3.32,3.32,0,0,0,77.29,10a3.28,3.28,0,0,0,1.28,1.25,3.53,3.53,0,0,0,.92.34,4.29,4.29,0,0,0,1.14.14l1.46,0Zm-19,0H60.56a8.12,8.12,0,0,1-3.35-.67,7,7,0,0,1-2.52-1.84,8.47,8.47,0,0,1-1.57-2.69A8.87,8.87,0,0,1,52.56,8a7.39,7.39,0,0,1,.56-2.82,7.74,7.74,0,0,1,1.6-2.5A8,8,0,0,1,57.27.93,8.21,8.21,0,0,1,60.52.27h2.62V4.55H61.36a4.71,4.71,0,0,0-2,.4,2.56,2.56,0,0,0-1.28,1.43h5.09v3.84H58.05a2.48,2.48,0,0,0,1,1.24,3.38,3.38,0,0,0,2.07.59h2Zm-30.5,0,1-12.37a4.93,4.93,0,0,1,0-.69,4,4,0,0,1,.12-.64,4.06,4.06,0,0,1,.35-1A2.4,2.4,0,0,1,35.25.39,3.83,3.83,0,0,1,36,.11L36.52,0l.55,0a3.79,3.79,0,0,1,2.35.57,2.92,2.92,0,0,1,1,1.66L41.8,7.64,43,2.71a5,5,0,0,1,.59-1.51,2.28,2.28,0,0,1,.79-.79,3,3,0,0,1,.81-.3L46,0l.64,0A3.24,3.24,0,0,1,49,.87a3.34,3.34,0,0,1,.89,2.54L51,16.3H46.12l-.56-9.55-2,8.25a1.5,1.5,0,0,1-.65,1,1.92,1.92,0,0,1-1.13.36,1.85,1.85,0,0,1-1-.3,1.47,1.47,0,0,1-.61-.87L38,6.75l-.55,9.55ZM19.55,8.39a3.59,3.59,0,0,0,.1.9,2.64,2.64,0,0,0,.33.77,2.91,2.91,0,0,0,1.15,1.08l.35.15.38.14a3.44,3.44,0,0,0,.77.09H23a1.72,1.72,0,0,0,.44-.08,2.25,2.25,0,0,0,.44-.14,2.82,2.82,0,0,0,.34-.16A2.91,2.91,0,0,0,25.43,10a3.23,3.23,0,0,0,.45-1.71,3.2,3.2,0,0,0-.44-1.73A2.6,2.6,0,0,0,24.26,5.5a3.28,3.28,0,0,0-.74-.27l-.38-.07a2.89,2.89,0,0,0-.44,0,3.3,3.3,0,0,0-1.52.36A3,3,0,0,0,20,6.62a3.57,3.57,0,0,0-.34.81A4,4,0,0,0,19.55,8.39Zm-5.1-.21A7.87,7.87,0,0,1,15,5.4a8.56,8.56,0,0,1,1.64-2.66,8.32,8.32,0,0,1,2.62-2A7.65,7.65,0,0,1,22.66,0,8.42,8.42,0,0,1,26,.65a8.18,8.18,0,0,1,1.43.77,7.66,7.66,0,0,1,1.24,1.06,8.34,8.34,0,0,1,1.71,2.7A8.38,8.38,0,0,1,31,8.38a7.75,7.75,0,0,1-.68,3.25,7.94,7.94,0,0,1-1.89,2.6,9.15,9.15,0,0,1-2.66,1.7L25,16.2l-.74.21a6.74,6.74,0,0,1-1.49.17,8.25,8.25,0,0,1-3.15-.6A8.47,8.47,0,0,1,17,14.24a8.25,8.25,0,0,1-1.86-2.7,7.81,7.81,0,0,1-.49-1.6A8.41,8.41,0,0,1,14.45,8.18ZM0,16.3V.27H5V5.85H7.36V.27h5.06v16H7.36V10H5V16.3Z"/></g></g></svg>