<svg xmlns="http://www.w3.org/2000/svg" viewBox="0 0 213.89 213.89"><defs><style>.cls-1{fill:#300505;}.cls-2{fill:none;stroke:#58595b;stroke-miterlimit:2.61;stroke-width:0.5px;}.cls-3,.cls-5{fill:#fff;}.cls-3,.cls-4{fill-rule:evenodd;}.cls-4{fill:#d2ab67;}</style></defs><g id="Layer_2" data-name="Layer 2"><g id="Layer_1-2" data-name="Layer 1"><rect class="cls-1" x="0.25" y="0.25" width="213.39" height="213.39"/><rect class="cls-2" x="0.25" y="0.25" width="213.39" height="213.39"/><path class="cls-3" d="M54.63,80.39,56,79.45l51-35.68,51,35.68,1.34.94H147.81c-1.55,0-3.15,1.88-3.15,3.43V98.56h0v10.3c0,.67,0,1.33,0,2v.52c0,.47,0,1,0,1.43a37.71,37.71,0,0,1-37,37.71h-1.41a37.73,37.73,0,0,1-37-37.71c0-.48,0-1,0-1.44v-.52c0-.66,0-1.33,0-2V98.56h0V83.82c0-1.55-1.6-3.43-3.15-3.43H54.63Zm6.94,29.8,0,.9c0,.57,0,1.14,0,1.72a45.45,45.45,0,0,0,3.06,16.42c-5.51-1.77-10.84-4-13.1-7A7.5,7.5,0,0,1,50.06,118C49.72,111.36,56.15,109.93,61.57,110.19ZM97.06,74.63H106v8.93H97.06Zm0,20.42V86.12H106v8.93Zm11.48,0V86.12h8.93v8.93Zm0-20.42h8.93v8.93h-8.93Zm-31,48.87c27.15-11.94,28.67,15.43,45.66,17.53C107.07,148.35,85.88,145.58,77.58,123.5Zm74.71-12.41c0-.73,0-1.48,0-2.23V89.52a1.71,1.71,0,0,1,1.57-1.47h13.68l.27,0h0l.26,0h0l.27,0h0c2.87-.4,5.17-1.86,5.26-4h0c.07-1.61-1.13-3.62-4.31-5.85L108.64,35.61a1.64,1.64,0,0,0-.22-.14l0,0h0a2.81,2.81,0,0,0-1.39-.39h-.11a2.81,2.81,0,0,0-1.39.39h0l0,0-.22.14L44.57,78.09c-3.18,2.23-4.38,4.24-4.31,5.85h0c.09,2.13,2.39,3.59,5.26,4h0l.26,0h0l.27,0h0l.26,0H60a1.71,1.71,0,0,1,1.57,1.47v13.31c-10-.32-19.44,4.3-18.86,15.52.69,13,15,16.68,26.69,19.94a45.34,45.34,0,0,0,36.7,19.89h1.69a45.38,45.38,0,0,0,44.54-45.37C152.32,112.23,152.31,111.66,152.29,111.09Z"/><path class="cls-4" d="M106.55,124.06c10.28,12.41,20.13,21.81,29.72,1-11.57-6.61-21.41-6.68-29.72-1"/><path class="cls-5" d="M180.32,184.18h-2.58a8.12,8.12,0,0,1-3.35-.67,7,7,0,0,1-2.52-1.84A8.66,8.66,0,0,1,170.3,179a9.11,9.11,0,0,1-.56-3.1,7.58,7.58,0,0,1,.56-2.82,7.92,7.92,0,0,1,1.6-2.5,8,8,0,0,1,2.55-1.75,8.24,8.24,0,0,1,3.25-.65h2.62v4.27h-1.77a4.73,4.73,0,0,0-2,.4,2.56,2.56,0,0,0-1.28,1.43h5.09v3.84h-5.09a2.44,2.44,0,0,0,1,1.24,3.38,3.38,0,0,0,2.07.59h2Zm-12.28,0h-2.58a8.12,8.12,0,0,1-3.35-.67,7,7,0,0,1-2.52-1.84A8.47,8.47,0,0,1,158,179a8.87,8.87,0,0,1-.56-3.1,7.39,7.39,0,0,1,.56-2.82,7.63,7.63,0,0,1,4.15-4.25,8.2,8.2,0,0,1,3.25-.65H168v4.27h-1.78a4.68,4.68,0,0,0-2,.4,2.56,2.56,0,0,0-1.28,1.43H168v3.84H163a2.44,2.44,0,0,0,1,1.24,3.38,3.38,0,0,0,2.07.59h2Zm-21.33,0V173.87a7,7,0,0,1,.66-3.29,4.06,4.06,0,0,1,1.92-1.83,5.72,5.72,0,0,1,1.36-.45,8.18,8.18,0,0,1,1.63-.14h3.8v4.45H153.5a2.42,2.42,0,0,0-1.15.21,1.17,1.17,0,0,0-.52.65l-.08.48,0,.63h4.36v4.12h-4.41l.05,5.48Zm-11,0V173.87a7,7,0,0,1,.65-3.29,4.13,4.13,0,0,1,1.93-1.83,5.43,5.43,0,0,1,1.36-.45,8.12,8.12,0,0,1,1.63-.14h3.79v4.45h-2.58a2.38,2.38,0,0,0-1.14.21,1.15,1.15,0,0,0-.53.65l-.08.48,0,.63h4.36v4.12h-4.41l.05,5.48Zm-13.36-7.91a4.16,4.16,0,0,0,.09.9,2.53,2.53,0,0,0,.33.77A2.91,2.91,0,0,0,124,179l.35.15.38.14a3.46,3.46,0,0,0,.77.1h.33a1.65,1.65,0,0,0,.44-.08,2.25,2.25,0,0,0,.44-.14L127,179a2.89,2.89,0,0,0,1.24-1.13,3.48,3.48,0,0,0,0-3.44,2.62,2.62,0,0,0-1.17-1.07,4,4,0,0,0-.75-.27L126,173l-.44,0a3.3,3.3,0,0,0-1.52.36,3,3,0,0,0-1.18,1.12,3.14,3.14,0,0,0-.33.81A3.52,3.52,0,0,0,122.38,176.27Zm-5.11-.21a7.87,7.87,0,0,1,.54-2.78,8.56,8.56,0,0,1,1.64-2.66,8.32,8.32,0,0,1,2.62-2,7.65,7.65,0,0,1,3.41-.75,8.39,8.39,0,0,1,3.31.65,8.18,8.18,0,0,1,1.43.77,7.26,7.26,0,0,1,1.24,1.06,8.72,8.72,0,0,1,2.35,5.9,7.75,7.75,0,0,1-.68,3.25,7.94,7.94,0,0,1-1.89,2.6,9,9,0,0,1-2.66,1.7l-.72.27-.75.21a6.74,6.74,0,0,1-1.49.17,8.26,8.26,0,0,1-5.82-2.34,8.12,8.12,0,0,1-1.87-2.7,7.81,7.81,0,0,1-.49-1.6A9.14,9.14,0,0,1,117.27,176.06Zm-1.62,8.12h-2.4a8,8,0,0,1-4.31-1.12,7.15,7.15,0,0,1-2.71-2.94,8.91,8.91,0,0,1-.7-1.88,8.38,8.38,0,0,1-.24-2,8.54,8.54,0,0,1,.24-2,8.4,8.4,0,0,1,.71-1.94,7.15,7.15,0,0,1,2.72-3,7.24,7.24,0,0,1,2-.87,9.28,9.28,0,0,1,2.37-.28h2.31v4.59H114a3.71,3.71,0,0,0-1.93.48,3.39,3.39,0,0,0-1.26,1.26,5.4,5.4,0,0,0-.33.82,3.53,3.53,0,0,0-.13.87,3.43,3.43,0,0,0,.46,1.68,3.37,3.37,0,0,0,2.21,1.59,4.22,4.22,0,0,0,1.13.14l1.46,0Zm-19,0H94.12a8.15,8.15,0,0,1-3.35-.67,7,7,0,0,1-2.52-1.84A8.44,8.44,0,0,1,86.69,179a8.89,8.89,0,0,1-.57-3.1,7.4,7.4,0,0,1,.57-2.82,7.58,7.58,0,0,1,1.6-2.5,7.81,7.81,0,0,1,2.55-1.75,8.19,8.19,0,0,1,3.24-.65H96.7v4.27H94.93a4.73,4.73,0,0,0-2,.4,2.56,2.56,0,0,0-1.28,1.43H96.7v3.84H91.61a2.55,2.55,0,0,0,1,1.24,3.39,3.39,0,0,0,2.08.59h2Zm-30.5,0,1-12.37q0-.37,0-.69a6.72,6.72,0,0,1,.47-1.64,2.37,2.37,0,0,1,1.09-1.21,4.25,4.25,0,0,1,.78-.28l.48-.08.55,0a3.82,3.82,0,0,1,2.36.57,2.91,2.91,0,0,1,1,1.66l1.4,5.41,1.19-4.93a5,5,0,0,1,.59-1.51,2.28,2.28,0,0,1,.79-.79,3.12,3.12,0,0,1,.81-.3l.77-.08.65,0a3.27,3.27,0,0,1,2.38.87,3.38,3.38,0,0,1,.89,2.54l1.07,12.89H79.69l-.57-9.55-2,8.25a1.55,1.55,0,0,1-.65,1,2,2,0,0,1-1.14.36,1.85,1.85,0,0,1-1-.3,1.51,1.51,0,0,1-.61-.87l-2.09-8.43L71,184.18Zm-13.08-7.91a3.59,3.59,0,0,0,.1.9,2.28,2.28,0,0,0,.32.77A3,3,0,0,0,54.69,179l.36.15.38.14a3.46,3.46,0,0,0,.77.1h.32a1.78,1.78,0,0,0,.45-.08,2.49,2.49,0,0,0,.44-.14l.34-.16A2.89,2.89,0,0,0,59,177.89a3.13,3.13,0,0,0,.46-1.71,3.29,3.29,0,0,0-.44-1.73,2.7,2.7,0,0,0-1.18-1.07,4,4,0,0,0-.75-.27L56.7,173l-.43,0a3.32,3.32,0,0,0-1.53.36,3.07,3.07,0,0,0-1.18,1.12,3.38,3.38,0,0,0-.44,1.77Zm-5.1-.21a7.66,7.66,0,0,1,.54-2.78,8.68,8.68,0,0,1,4.25-4.65,7.65,7.65,0,0,1,3.41-.75,8.47,8.47,0,0,1,3.32.65,8.09,8.09,0,0,1,1.42.77,7.26,7.26,0,0,1,1.24,1.06,8.72,8.72,0,0,1,2.35,5.9,7.75,7.75,0,0,1-.68,3.25,7.94,7.94,0,0,1-1.89,2.6,9,9,0,0,1-2.66,1.7l-.72.27-.75.21a6.65,6.65,0,0,1-1.48.17,8.34,8.34,0,0,1-3.16-.6,8.43,8.43,0,0,1-2.67-1.74,8.12,8.12,0,0,1-1.87-2.7,8.49,8.49,0,0,1-.49-1.6A9.14,9.14,0,0,1,48,176.06Zm-14.46,8.12v-16h5v5.57h2.33v-5.57H46v16H40.92V177.9H38.59v6.28Z"/></g></g></svg>